<?xml version="1.0" encoding="UTF-8" standalone="no"?>
<!DOCTYPE svg PUBLIC "-//W3C//DTD SVG 1.1//EN" "http://www.w3.org/Graphics/SVG/1.1/DTD/svg11.dtd">
<svg width="100%" height="100%" viewBox="0 0 800 800" version="1.1" xmlns="http://www.w3.org/2000/svg" xmlns:xlink="http://www.w3.org/1999/xlink" xml:space="preserve" xmlns:serif="http://www.serif.com/" style="fill-rule:evenodd;clip-rule:evenodd;stroke-linejoin:round;stroke-miterlimit:100;">
    <g>
        <g transform="matrix(53.333333,0,0,53.333333,0,0)">
            <path d="M11,1.5C11,1.5 12.164,1.5 12.6,1.5C13.308,1.501 13.488,2.036 13.5,2.407C13.508,2.644 13.5,13.5 13.5,13.5C13.5,14.052 13.052,14.5 12.5,14.5M4.5,0.5L10.5,0.5L10.5,2.5C10.5,3.052 10.052,3.5 9.5,3.5L5.5,3.5C4.948,3.5 4.5,3.052 4.5,2.5L4.5,0.5Z" style="fill:none;fill-rule:nonzero;stroke:black;stroke-width:1px;"/>
        </g>
        <g transform="matrix(-53.333333,0,0,53.333333,800.182821,0)">
            <path d="M11,1.5C11,1.5 12.164,1.5 12.6,1.5C13.308,1.501 13.488,2.036 13.5,2.407C13.508,2.644 13.5,13.5 13.5,13.5C13.5,14.052 13.052,14.5 12.5,14.5L2.5,14.5" style="fill:none;fill-rule:nonzero;stroke:black;stroke-width:1px;"/>
        </g>
    </g>
    <g transform="matrix(1,0.000596,-0.000596,1.045602,0.277279,-21.466398)">
        <path d="M400,312L400.091,619" style="fill:none;stroke:black;stroke-width:68.42px;stroke-linecap:round;"/>
    </g>
    <g transform="matrix(1.003125,0,0,1,-0.75,0)">
        <path d="M560,465.5L240,465.5" style="fill:none;stroke:black;stroke-width:69.89px;stroke-linecap:round;"/>
    </g>
</svg>
