<?xml version="1.0" encoding="UTF-8" standalone="no"?>
<!DOCTYPE svg PUBLIC "-//W3C//DTD SVG 1.1//EN" "http://www.w3.org/Graphics/SVG/1.1/DTD/svg11.dtd">
<svg width="100%" height="100%" viewBox="0 0 1024 1024" version="1.1" xmlns="http://www.w3.org/2000/svg" xmlns:xlink="http://www.w3.org/1999/xlink" xml:space="preserve" xmlns:serif="http://www.serif.com/" style="fill-rule:evenodd;clip-rule:evenodd;stroke-linejoin:round;stroke-miterlimit:2;">
    <g id="Background" transform="matrix(1.644413,0,0,1.979037,-60.255366,248.73648)">
        <path d="M252.5,99.966C238.973,99.966 238.092,100.246 235.577,98.394C231.843,95.646 228.137,92.395 221.206,100.244C215.517,106.688 208.034,128.281 214.341,152.547C215.367,156.492 218.184,162.281 219.898,164.125C225.809,170.488 231.669,167.092 231.83,165.555C232.108,162.914 227.048,163.882 224.099,148.582C223.783,146.944 222.965,144.711 222.876,137.494C222.794,130.838 223.658,130.113 227.481,130.035C248.497,129.607 248.489,130.154 269.494,129.331C282.508,128.82 282.509,129.277 295.498,128.457C300.99,128.11 309.084,128.303 320.49,127.354C321.282,127.288 354.501,125.798 354.582,125.784C356.114,125.509 356.057,124.703 356.046,124.55C355.96,123.348 355.298,123.496 336.506,123.205C307.837,122.698 279.167,122.191 250.497,121.684C229.369,121.308 229.367,121.458 227.545,121.229C223.111,120.673 227.744,114.099 227.896,113.98C229.1,113.037 229.279,113.166 258.5,113.145C275.061,113.134 463.236,112.999 465.521,113.303C468.377,113.683 469.114,115.903 471.556,124.484C473.127,130.007 473.225,141.258 471.715,148.549C468.707,163.08 464.729,163.041 463.709,164.619C462.557,166.399 466.964,169.407 471.362,167.215C475.379,165.212 477.727,160.655 477.736,160.642C478.724,159.1 482.05,153.911 483.617,138.51C484.219,132.595 483.021,111.26 475.395,101.581C473.984,99.791 469.529,93.518 463.662,95.909C459.483,97.612 459.834,99.742 454.508,99.858C454.346,99.861 436.062,99.929 435.471,99.881C431.965,99.599 432.766,96.847 433.651,89.517C433.933,87.181 435.56,73.702 438.589,60.52C441.391,48.328 441.685,48.419 445.835,36.617C447.168,32.827 449.996,26.737 450.652,25.589C456.212,15.867 458.675,13.462 459.578,12.58C465.263,7.028 473.659,2.149 484.181,8.95C485.184,9.598 489.845,13.97 491.577,16.444C493.768,19.575 496.553,22.838 501.842,35.355C502.473,36.848 505.114,43.099 508.275,54.56C515.958,82.424 517.046,113.348 517.228,118.511C517.412,123.73 518.307,142.963 516.354,160.485C515.405,169.001 515.742,169.01 514.748,177.53C514.223,182.024 512.588,191.287 512.377,192.48C512.05,194.332 510.844,201.165 507.054,215.383C506.706,216.687 502.488,229.662 499.941,234.708C497.634,239.278 495.325,244.681 490.345,250.367C488.481,252.495 488.572,252.571 486.408,254.387C484.715,255.808 477.678,262.066 468.43,258.685C464.88,257.387 460.985,253.993 457.373,249.601C456.351,248.358 453.72,244.254 453.285,243.645C451.225,240.758 447.311,232.22 446.366,229.551C443.89,222.558 442.253,219.588 438.826,204.427C437.422,198.219 435.257,189.907 433.801,175.463C433.522,172.689 433.075,169.107 433.007,168.555C432.499,164.48 431.937,163.374 428.504,163.305C426.608,163.267 269.906,163.08 266.492,163.381C262.663,163.718 263.071,165.704 262.363,171.485C261.881,175.421 261.642,180.372 259.367,192.476C258.705,195.996 258.727,198.159 256.499,206.5C254.857,212.648 255.531,212.877 249.759,228.595C248.333,232.476 246.142,236.928 245.793,237.637C244.611,240.041 242.56,244.626 236.63,251.607C236.628,251.609 231.006,259.271 221.503,259.577C213.919,259.822 207.372,252.551 206.459,251.537C204.443,249.298 199.523,242.955 195.352,233.572C195.045,232.882 185.814,214.788 181.008,178.564C177.541,152.439 178.082,141.474 178.008,139.507C177.206,118.228 179.281,98.819 181.2,83.454C181.383,81.989 183.446,69.054 184.839,63.589C185.797,59.835 189.478,44.113 195.252,31.384C195.759,30.267 200.429,21.49 201.722,19.649C202.126,19.074 204.259,15.634 207.452,12.452C211.963,7.959 218.613,4.084 226.517,6.445C234.634,8.869 242.012,19.347 244.365,24.568C245.023,26.028 247.606,30.059 252.215,42.603C252.432,43.192 255.496,52.587 256.731,58.446C256.903,59.266 260.693,76.491 261.805,86.458C262.941,96.652 262.959,96.657 262.845,97.54C262.479,100.384 259.85,99.965 252.5,99.966Z" style="fill:rgb(43,43,41);fill-opacity:1;"/>
        <path d="M530.036,120.516C529.701,112.682 528.489,58.083 508.323,20.596C502.788,10.306 498.986,7.883 499.613,5.548C500.059,3.888 507.18,2.929 509.509,3.038C515.93,3.337 521.35,3.821 530.264,12.736C534.613,17.085 534.214,17.393 537.248,21.671C537.579,22.138 540.103,25.698 541.124,27.694C546.036,37.298 546.124,37.263 549.679,47.438C552.421,55.286 552.154,55.351 554.398,63.528C558.985,80.248 559.999,93.812 560.383,96.515C561.105,101.589 560.892,101.588 561.346,106.512C563.011,124.558 562.072,137.105 561.988,146.506C561.914,154.767 561.431,154.725 560.849,163.532C560.25,172.595 558.453,180.835 557.847,185.559C557.183,190.738 552.529,209.645 552.278,210.432C547.864,224.292 546.393,228.698 543.308,234.394C539.158,242.056 536.716,246.737 531.809,251.799C527.997,255.731 522.883,260.808 513.526,262.656C508.771,263.595 500.63,262.078 499.828,261.191C498.733,259.981 500.629,257.786 500.723,257.661C501.812,256.206 501.716,256.159 502.749,254.664C502.937,254.392 504.581,252.013 505.039,251.222C520.023,225.343 523.756,197.677 525.354,189.472C527.304,179.468 528.798,162.828 528.817,162.523C530.034,142.09 530.4,142.107 530.036,120.516Z" style="fill:rgb(40,40,40);fill-opacity:1;"/>
        <path d="M187.516,262.963C186.091,263.028 180.71,263.618 172.734,259.106C169.025,257.008 166.244,253.91 164.158,251.847C153.291,241.099 147.728,222.849 144.609,214.461C144.061,212.989 140.666,200.525 139.802,196.438C136.7,181.769 136.764,180.045 134.299,158.523C133.267,149.52 132.66,127.982 133.485,118.499C133.92,113.512 133.576,112.883 134.514,104.501C134.79,102.042 134.26,101.991 138.225,75.454C138.95,70.595 143.136,54.483 145.33,48.439C146.575,45.011 146.356,44.92 148.303,40.414C148.509,39.937 153.187,27.972 158.648,20.605C162.258,15.736 165.13,11.173 173.354,6.226C175.983,4.645 183.825,2.062 190.516,3.413C195.499,4.419 196.651,4.713 196.328,6.455C196.124,7.56 193.332,9.162 186.704,21.61C185.449,23.967 179.435,37.108 177.295,44.435C175.658,50.037 175.424,49.962 173.121,59.404C168.492,78.381 166.101,101.883 165.666,113.505C165.576,115.889 164.247,124.31 166.115,153.521C166.233,155.366 166.763,163.644 168.274,176.526C169.303,185.301 170.297,195.163 175.663,214.451C181.035,233.76 185.867,241.868 187.297,244.606C190.205,250.175 190.083,250.238 193.185,254.709C196.484,259.462 196.293,259.912 196.093,260.381C195.12,262.674 188.232,262.936 187.516,262.963Z" style="fill:rgb(41,41,41);fill-opacity:1;"/>
        <path d="M604.961,136.499C605.085,143.804 604.358,153.076 604.294,153.454C603.312,159.319 604.115,159.395 603.313,163.453C602.626,166.932 603.025,166.982 602.323,170.455C601.721,173.437 602.01,173.472 601.337,176.455C600.426,180.496 600.72,180.539 599.75,184.549C597.176,195.191 597.27,195.217 593.55,205.515C593.444,205.81 593.442,206.141 593.304,206.423C593.242,206.551 593.015,206.557 592.974,206.693C592.916,206.883 593.099,207.095 593.042,207.286C592.998,207.431 592.77,207.454 592.704,207.59C592.44,208.136 592.323,208.743 592.069,209.294C592.007,209.429 591.832,209.488 591.768,209.622C590.889,211.444 591.016,211.481 590.118,213.307C589.517,214.531 589.421,214.451 588.806,215.657C588.295,216.658 588.344,216.669 587.773,217.643C587.319,218.419 587.541,218.51 587.068,219.261C586.975,219.407 586.776,219.463 586.681,219.608C586.524,219.846 586.494,220.157 586.325,220.388C586.209,220.548 585.962,220.581 585.852,220.746C585.543,221.211 585.394,221.771 585.094,222.242C584.993,222.399 584.772,222.45 584.667,222.604C584.507,222.839 584.488,223.154 584.318,223.381C584.195,223.545 583.946,223.578 583.817,223.737C583.647,223.945 583.621,224.248 583.446,224.453C583.298,224.627 583.035,224.671 582.879,224.837C582.706,225.021 582.653,225.297 582.48,225.481C582.319,225.651 582.063,225.71 581.9,225.878C581.728,226.055 581.666,226.319 581.496,226.496C581.334,226.665 581.083,226.732 580.92,226.9C580.749,227.076 580.681,227.334 580.511,227.511C580.347,227.68 580.092,227.745 579.936,227.922C579.618,228.28 579.427,228.74 579.105,229.094C578.942,229.274 578.675,229.332 578.501,229.501C578.335,229.664 578.274,229.918 578.102,230.075C577.919,230.243 577.641,230.283 577.46,230.454C577.297,230.608 577.272,230.88 577.099,231.024C576.472,231.544 576.324,231.256 575.651,231.724C575.496,231.832 575.409,232.019 575.257,232.13C575.032,232.294 574.749,232.371 574.53,232.543C574.373,232.667 574.327,232.92 574.145,233.006C574.019,233.065 573.866,232.867 573.736,232.918C573.579,232.98 573.547,233.216 573.4,233.299C573.343,233.332 567.392,235.488 564.501,235.532C561.046,235.584 560.217,235.393 559.363,234.69C558.697,234.142 557.833,233.825 558.89,230.638C561.382,223.123 561.618,223.215 563.654,215.551C565.12,210.03 565.326,210.099 566.678,204.556C568.869,195.569 568.819,195.577 570.447,186.491C570.896,183.988 571.075,184.029 571.307,181.483C571.629,177.956 571.985,178.021 572.272,174.48C572.558,170.96 573.011,171.029 573.186,167.482C573.539,160.324 573.866,160.368 574.087,158.462C574.46,155.258 573.887,153.521 574.878,145.579C575.399,141.402 575.096,120.961 575.043,120.529C574.667,117.422 574.551,117.448 574.385,112.503C574.16,105.793 574.11,105.807 573.666,103.46C572.887,99.334 573.571,99.263 572.667,94.46C571.934,90.569 572.667,90.488 571.663,85.46C571.161,82.941 571.355,82.918 570.698,80.445C570.001,77.822 570.55,77.73 569.65,74.458C568.972,71.995 569.34,71.927 568.67,69.453C568.002,66.984 568.388,66.916 567.628,64.46C567.531,64.145 567.763,64.106 566.635,60.458C566.025,58.486 566.276,58.432 565.632,56.457C564.847,54.045 564.971,54.023 564.178,51.606C564.046,51.203 563.807,50.841 563.676,50.437C563.481,49.835 563.401,49.2 563.203,48.598C563.071,48.195 562.821,47.836 562.688,47.433C562.491,46.833 562.417,46.197 562.216,45.599C562.08,45.193 561.82,44.837 561.681,44.432C560.859,42.045 560.977,42.027 560.157,39.62C560.125,39.526 559.74,38.842 559.371,37.54C558.963,36.1 557.102,32.296 559.472,31.439C560.316,31.134 562.298,30.758 562.546,30.711C563.765,30.48 565.473,30.993 567.531,31.144C571.406,31.427 572.503,32.725 574.45,33.59C574.718,33.709 575.013,33.777 575.261,33.933C575.407,34.025 575.462,34.224 575.606,34.319C575.846,34.476 576.157,34.505 576.389,34.674C576.55,34.79 576.594,35.025 576.75,35.148C576.965,35.317 577.262,35.359 577.476,35.529C577.643,35.661 577.696,35.906 577.865,36.034C578.294,36.358 578.809,36.554 579.247,36.866C579.407,36.981 579.486,37.187 579.646,37.303C579.866,37.461 580.167,37.494 580.369,37.675C580.539,37.828 580.533,38.131 580.717,38.266C581.113,38.555 581.671,38.581 582.043,38.9C582.141,38.984 581.788,39.135 582.668,40.384C582.779,40.542 582.991,40.607 583.107,40.76C583.276,40.981 583.336,41.275 583.512,41.491C583.646,41.656 583.89,41.71 584.02,41.878C584.127,42.015 583.94,42.107 585.143,43.737C585.307,43.958 585.397,44.231 585.573,44.443C585.712,44.612 585.935,44.697 586.076,44.865C586.24,45.062 586.3,45.333 586.473,45.522C586.621,45.683 586.899,45.706 587.016,45.89C587.311,46.355 587.398,46.927 587.668,47.406C587.751,47.554 587.993,47.58 588.057,47.738C588.118,47.888 587.938,48.068 587.997,48.219C588.06,48.379 588.29,48.418 588.383,48.563C588.542,48.812 588.585,49.122 588.736,49.375C588.819,49.514 589.001,49.579 589.075,49.722C589.348,50.25 589.499,50.836 589.767,51.367C589.837,51.505 590.012,51.571 590.079,51.711C590.34,52.253 590.478,52.849 590.743,53.389C590.809,53.525 590.996,53.575 591.059,53.711C591.313,54.262 591.412,54.876 591.678,55.42C591.746,55.561 591.992,55.571 592.039,55.72C592.098,55.907 591.895,56.113 591.953,56.3C591.998,56.443 592.248,56.442 592.306,56.581C592.405,56.813 592.299,56.847 593.372,59.55C593.959,61.026 593.823,61.053 594.437,62.527C595.052,64.003 595.21,63.932 595.558,65.486C596.601,70.141 597.055,70.007 597.576,72.483C598.513,76.936 599.343,79.479 599.54,80.492C600.123,83.482 600.316,83.419 600.785,86.449C601.115,88.576 601.506,88.486 601.751,91.477C602.041,95.01 602.477,94.944 602.738,98.481C603.035,102.516 603.404,102.458 603.709,106.484C603.902,109.032 603.757,109.035 604.317,111.543C605.039,114.779 604.961,135.823 604.961,136.499Z" style="fill:rgb(116,195,71);fill-opacity:1;"/>
        <path d="M132.5,31.054C132.865,31.065 134.359,30.772 136.404,31.642C137.038,31.912 137.109,31.924 137.213,32.609C137.473,34.311 135.569,38.526 132.621,47.534C128.457,60.257 127.236,67.258 125.543,76.507C125.262,78.038 125.058,78.037 124.717,80.529C124.305,83.542 123.983,83.48 123.722,86.52C123.42,90.044 122.991,89.978 122.761,93.518C122.425,98.665 122.145,98.626 121.913,100.54C121.374,104.993 121.992,105.029 121.299,109.457C119.981,117.884 120.85,150.826 120.935,151.465C121.422,155.136 121.523,155.112 121.82,161.481C121.986,165.019 122.415,164.961 122.666,168.489C122.882,171.538 122.635,171.558 123.314,174.544C123.973,177.442 123.328,177.534 124.326,181.545C125.065,184.511 124.539,184.598 125.313,187.552C125.339,187.651 126.51,194.62 127.327,197.55C128.013,200.013 127.612,200.093 128.355,202.545C128.958,204.529 128.737,204.575 129.383,206.538C129.462,206.779 129.422,206.771 130.31,209.561C130.38,209.781 130.204,209.817 130.889,212.387C130.897,212.417 131.294,213.278 131.56,214.486C131.669,214.981 132.193,217.365 133.445,220.523C133.559,220.811 133.612,221.124 133.754,221.401C133.818,221.524 134.012,221.563 134.048,221.697C134.101,221.898 133.944,222.118 133.999,222.318C134.181,222.978 134.396,222.899 136.851,230.389C137.134,231.252 138.899,234.024 134.447,235.31C131.437,236.18 128.151,235.252 127.626,235.104C126.553,234.8 126.571,234.798 125.49,234.538C125.186,234.465 124.862,234.438 124.584,234.296C124.448,234.226 124.452,233.977 124.306,233.933C124.119,233.876 123.914,234.097 123.727,234.036C123.572,233.986 123.567,233.735 123.429,233.648C123.177,233.49 122.85,233.482 122.598,233.325C122.447,233.232 122.417,232.989 122.254,232.92C122.129,232.867 121.98,233.068 121.858,233.009C121.716,232.941 121.86,232.765 120.34,231.758C118.74,230.698 118.737,230.716 118.492,230.51C117.949,230.052 118.044,229.973 117.452,229.551C117.313,229.451 117.067,229.276 115.854,228.126C114.338,226.691 114.193,226.854 112.856,225.241C112.685,225.035 112.592,224.771 112.418,224.567C112.275,224.399 112.057,224.306 111.914,224.138C111.749,223.945 111.675,223.684 111.504,223.497C111.357,223.336 111.099,223.291 110.978,223.11C110.675,222.659 110.538,222.113 110.261,221.646C110.17,221.492 109.985,221.411 109.884,221.263C109.724,221.028 109.662,220.732 109.487,220.509C109.358,220.346 109.098,220.31 108.992,220.132C108.706,219.653 108.612,219.077 108.339,218.59C108.256,218.44 108.01,218.419 107.945,218.26C107.885,218.111 108.071,217.931 108.011,217.781C107.947,217.619 107.714,217.582 107.618,217.435C107.401,217.103 103.073,208.769 102.632,207.447C102.529,207.136 101.489,204.014 101.266,203.595C101.199,203.468 100.994,203.435 100.955,203.296C100.901,203.1 101.071,202.882 101.013,202.687C100.973,202.555 100.744,202.554 100.695,202.426C100.604,202.19 100.689,202.163 99.678,199.435C99.564,199.126 99.778,199.07 98.627,195.459C98.001,193.493 98.253,193.444 97.608,191.465C97.529,191.225 97.561,191.219 96.693,188.439C96.595,188.124 96.779,188.08 95.687,184.443C94.872,181.727 95.475,181.62 94.681,178.453C94.451,177.537 94.085,173.744 94.051,173.596C93.373,170.604 93.419,170.61 93.116,167.552C92.935,165.716 92.447,165.637 92.253,162.517C92.094,159.971 92.235,159.968 91.7,157.454C90.977,154.062 91.527,147.964 90.705,142.459C90.364,140.179 90.303,121.884 90.686,119.541C91.556,114.228 91.149,109.83 91.705,106.545C92.377,102.582 92.011,102.534 92.87,98.595C92.934,98.304 94.202,88.419 94.907,85.619C95.161,84.611 96.092,79.431 96.625,77.54C96.941,76.42 100.374,64.247 100.692,63.572C100.749,63.45 100.962,63.442 101.001,63.313C101.06,63.117 100.898,62.898 100.953,62.7C100.99,62.564 101.194,62.529 101.252,62.401C102.288,60.114 101.941,60.005 102.945,57.712C103.006,57.574 103.198,57.527 103.263,57.392C103.853,56.174 104.761,53.964 104.885,53.664C105.05,53.261 105.245,52.871 105.4,52.465C105.511,52.175 105.535,51.851 105.681,51.578C105.752,51.443 105.982,51.426 106.029,51.28C106.087,51.103 105.896,50.902 105.956,50.726C106.009,50.573 106.242,50.55 106.329,50.412C106.486,50.165 106.506,49.845 106.669,49.601C106.773,49.445 106.995,49.398 107.106,49.247C107.614,48.553 107.396,48.445 107.886,47.742C107.984,47.601 108.867,46.587 109.467,45.476C109.801,44.857 109.878,44.926 110.267,44.351C110.425,44.119 110.479,43.824 110.649,43.601C110.773,43.438 111.001,43.378 111.128,43.219C111.296,43.01 111.35,42.724 111.52,42.517C111.658,42.35 111.891,42.284 112.033,42.122C112.757,41.293 112.626,41.204 113.403,40.407C113.909,39.887 113.898,39.906 114.411,39.407C117.218,36.67 117.252,36.731 117.495,36.494C117.662,36.331 117.725,36.079 117.897,35.922C118.079,35.754 118.354,35.71 118.534,35.54C118.696,35.388 118.721,35.119 118.894,34.981C119.544,34.462 119.693,34.79 120.396,34.326C120.542,34.23 120.595,34.027 120.742,33.933C121.489,33.454 121.578,33.672 122.354,33.219C125.983,31.099 127.409,31.191 132.5,31.054Z" style="fill:rgb(116,195,72);fill-opacity:1;"/>
        <path d="M78.935,133.489C79.959,143.004 79.309,148.338 80.291,154.543C80.894,158.351 80.242,158.836 81.285,163.551C81.883,166.251 81.33,167.337 82.306,171.547C82.994,174.519 82.54,174.581 83.301,177.553C83.935,180.028 83.636,180.08 84.316,182.552C84.485,183.169 84.661,184.318 84.685,184.472C85.074,187.006 85.369,186.935 85.706,189.473C85.792,190.122 85.831,190.777 85.935,191.423C86.179,192.932 86.43,193.03 85.494,194.494C84.105,196.666 78.098,195.736 76.714,195.045C76.581,194.978 76.521,194.807 76.388,194.74C75.856,194.476 75.266,194.338 74.739,194.063C74.586,193.983 74.521,193.79 74.379,193.692C74.15,193.535 73.852,193.488 73.639,193.309C73.469,193.167 73.432,192.906 73.267,192.759C73.078,192.591 72.786,192.567 72.605,192.391C72.274,192.069 72.471,191.867 71.609,191.395C70.546,190.814 70.943,190.483 70.339,189.601C70.239,189.456 70.04,189.397 69.945,189.248C69.328,188.293 69.5,188.22 68.868,187.275C68.71,187.039 68.624,186.758 68.453,186.533C68.331,186.372 68.104,186.305 67.999,186.132C67.708,185.656 67.56,185.105 67.284,184.62C67.203,184.477 67.014,184.413 66.94,184.267C66.67,183.734 66.529,183.143 66.264,182.608C66.198,182.475 66.018,182.422 65.96,182.286C65.415,181.011 65.628,180.952 65.11,179.651C64.457,178.013 64.005,177.858 63.52,175.496C63.005,172.987 62.742,173.062 62.331,170.528C61.894,167.828 60.597,161.965 60.406,160.511C59.942,156.983 60.286,156.961 59.704,153.456C58.944,148.873 59.782,148.722 58.707,143.454C58.249,141.211 58.367,124.846 58.733,122.55C59.714,116.407 59.026,116.337 59.714,112.549C60.172,110.026 60.003,110.013 60.453,107.492C60.525,107.091 60.574,107.104 61.476,102.496C62.015,99.744 63.686,94.34 63.903,93.638C64.374,92.114 64.207,92.087 64.733,90.586C64.778,90.459 65.004,90.454 65.041,90.324C65.097,90.129 64.924,89.914 64.981,89.719C65.023,89.577 65.244,89.551 65.308,89.417C65.691,88.616 65.454,88.388 67.244,85.364C67.702,84.59 67.487,84.503 67.951,83.745C68.103,83.498 71.63,78.878 71.755,78.751C72.077,78.424 72.683,77.945 72.767,77.879C78.374,73.445 82.564,74.487 83.427,74.702C87.057,75.604 85.121,80.672 84.528,83.506C84.004,86.015 83.866,85.968 83.451,88.492C83.044,90.963 82.086,94.721 81.663,98.518C81.214,102.534 81.022,102.49 80.727,106.516C80.286,112.523 79.817,112.466 79.609,118.503C79.42,123.972 79.724,123.968 79.113,129.425C78.834,131.912 78.947,133.199 78.935,133.489Z" style="fill:rgb(108,185,66);fill-opacity:1;"/>
        <path d="M636.959,129.495C637.688,136.99 637.178,136.982 636.677,144.511C636.652,144.89 635.678,156.557 635.307,158.453C634.819,160.947 634.036,169.749 631.066,178.334C630.984,178.57 630.139,181.011 630.028,181.286C629.973,181.42 629.789,181.468 629.726,181.598C629.464,182.141 629.325,182.737 629.064,183.28C628.997,183.421 628.832,183.494 628.754,183.628C628.304,184.41 628.507,184.489 628.056,185.265C627.973,185.407 627.799,185.479 627.711,185.617C627.557,185.861 627.501,186.16 627.336,186.397C627.226,186.556 627.012,186.622 626.903,186.782C626.592,187.238 626.402,187.769 626.091,188.224C625.981,188.384 625.765,188.448 625.653,188.605C625.492,188.831 625.457,189.134 625.285,189.352C625.155,189.515 624.907,189.551 624.775,189.712C624.606,189.917 624.575,190.215 624.405,190.419C624.265,190.588 624.016,190.64 623.87,190.804C623.697,190.997 623.64,191.276 623.468,191.471C623.314,191.645 623.065,191.715 622.911,191.888C622.602,192.235 622.451,192.719 622.094,193.015C621.677,193.361 621.117,193.488 620.651,193.764C620.256,193.997 617.83,195.92 613.492,195.808C608.133,195.67 609.149,192.575 609.732,189.567C609.873,188.842 610.094,188.901 611.717,180.559C611.828,179.989 611.882,180.007 613.18,173.448C614.063,168.989 614.201,167.042 614.24,166.479C614.56,161.947 614.916,162.003 615.269,157.482C615.816,150.468 616.11,150.509 616.334,143.495C617.137,118.35 615.586,111.583 615.383,108.507C615.339,107.843 615.299,107.18 615.255,106.516C615.12,104.451 615.169,104.463 614.697,102.452C614.04,99.65 614.672,99.254 613.652,95.459C613.566,95.14 613.705,95.133 612.731,91.436C612.078,88.956 612.378,88.908 611.723,86.438C611.068,83.969 611.388,83.912 610.649,81.455C608.838,75.434 612.022,74.843 612.571,74.741C614.707,74.344 616.768,75.021 618.506,75.481C618.807,75.56 619.126,75.594 619.405,75.733C619.538,75.799 619.553,76.03 619.695,76.072C619.877,76.126 620.079,75.923 620.257,75.987C620.414,76.043 620.426,76.289 620.564,76.383C620.802,76.542 621.123,76.552 621.352,76.723C621.518,76.848 621.544,77.105 621.703,77.239C621.906,77.409 622.206,77.434 622.406,77.607C622.578,77.755 622.617,78.019 622.784,78.174C622.971,78.347 623.252,78.394 623.441,78.564C623.612,78.718 623.664,78.978 623.84,79.125C624.212,79.438 624.698,79.598 625.059,79.924C625.241,80.088 625.311,80.345 625.43,80.559C625.562,80.797 625.643,81.066 625.812,81.279C625.935,81.434 626.168,81.478 626.284,81.638C626.451,81.869 626.476,82.181 626.638,82.415C626.743,82.568 626.987,82.605 627.064,82.774C627.121,82.898 626.926,83.054 626.986,83.177C627.072,83.351 627.327,83.385 627.442,83.541C627.608,83.765 627.641,84.07 627.81,84.292C627.927,84.446 628.164,84.481 628.275,84.64C628.441,84.876 628.453,85.197 628.613,85.437C628.707,85.58 628.955,85.594 629.017,85.753C629.081,85.916 628.881,86.106 628.939,86.271C628.994,86.426 629.229,86.452 629.313,86.593C629.466,86.852 629.475,87.181 629.631,87.438C629.714,87.576 629.957,87.587 630.008,87.739C630.069,87.921 629.867,88.125 629.923,88.309C629.967,88.453 630.212,88.458 630.27,88.597C630.296,88.659 633.141,97.436 633.441,98.511C634.102,100.872 633.642,100.949 634.324,103.547C634.497,104.21 634.656,105.32 634.679,105.476C634.971,107.513 635.119,107.472 635.472,109.505C635.994,112.514 635.695,112.546 636.265,115.549C636.864,118.702 636.95,128.378 636.959,129.495Z" style="fill:rgb(106,183,67);fill-opacity:1;"/>
        <path d="M658.979,141.534C658.467,147.344 656.561,154.444 652.518,156.53C647.862,158.931 645.321,156.559 645.087,154.572C644.622,150.628 647.477,140.139 646.051,123.543C645.605,118.363 644.237,113.77 648.481,113.297C655.614,112.502 657.91,122.472 658.164,123.573C659.918,131.191 659.314,137.053 658.979,141.534Z" style="fill:rgb(48,48,45);fill-opacity:1;"/>
        <path d="M49.968,123.549C49.537,129.848 48.916,134.82 50.253,148.526C50.473,150.782 52.296,157.428 46.516,157.226C36.941,156.893 35.47,135.841 37.353,126.468C37.893,123.778 39.325,114.209 46.425,113.066C52.189,112.139 50.517,118.713 49.968,123.549Z" style="fill:rgb(45,45,43);fill-opacity:1;"/>
    </g>
</svg>
